<svg version="1.1" id="Layer_1" xmlns="http://www.w3.org/2000/svg" xmlns:xlink="http://www.w3.org/1999/xlink" x="0px" y="0px"
	 width="100%" viewBox="0 0 1024 1024" enable-background="new 0 0 1024 1024" xml:space="preserve">
<path fill="#000000" opacity="1.000000" stroke="none" 
	d="
M486.847229,874.182861 
	C473.459778,868.917847 460.092346,864.928711 446.623871,861.142334 
	C439.467560,859.130432 433.154449,860.786316 426.733582,863.015625 
	C421.356689,864.882385 416.083344,865.520508 410.744843,863.268066 
	C408.881134,862.481689 407.111145,862.918274 405.353302,863.252808 
	C391.038544,865.977356 377.695984,862.510925 364.814087,856.699158 
	C361.507233,855.207214 358.487091,854.551636 354.802002,854.801880 
	C339.485535,855.841919 324.790466,860.428162 309.637299,862.349243 
	C306.876740,862.699219 304.243927,864.183960 302.261078,866.314392 
	C298.814056,870.017883 294.236816,871.537170 289.685638,873.182434 
	C287.958099,873.807007 286.479431,873.465820 284.901642,872.709045 
	C276.423950,868.642761 267.629883,866.765503 258.222137,868.785400 
	C256.824036,869.085571 255.122498,868.976013 253.800720,868.452087 
	C248.446075,866.329834 242.815323,865.822144 237.190369,865.189819 
	C231.386551,864.537415 225.576843,863.911743 220.585464,860.406616 
	C218.907669,859.228455 217.098251,859.227417 215.428650,860.362244 
	C211.633392,862.942017 207.035950,861.892273 202.894409,863.153809 
	C200.047714,864.020935 196.904984,861.446838 194.988266,859.526184 
	C189.361954,853.888489 181.590607,853.220825 175.042236,849.835266 
	C172.235458,848.384155 169.222412,847.199158 166.707504,845.344849 
	C161.834900,841.752136 156.393738,840.797546 150.566040,839.617493 
	C137.582993,836.988586 125.310616,831.735962 116.133896,821.797363 
	C110.380219,815.566040 108.917450,806.732300 109.528313,798.763794 
	C110.447243,786.776611 108.573135,775.177673 107.551186,763.428223 
	C106.441284,750.667725 102.333153,738.781250 97.663834,726.942261 
	C92.695045,714.343933 89.949280,701.055908 88.433250,687.626099 
	C87.806137,682.070618 88.356194,676.276611 89.112625,670.691528 
	C90.998146,656.769592 88.361771,643.204224 87.008202,629.471741 
	C86.282410,622.108337 83.689987,615.314697 82.786339,608.080200 
	C81.179260,595.214050 79.747757,582.537048 84.280289,569.796509 
	C86.591484,563.299927 87.252716,556.219971 88.712120,549.414917 
	C89.279556,546.769043 87.818863,544.638062 86.908852,542.434998 
	C92.380913,539.128967 96.211357,530.131836 92.738701,524.248474 
	C90.563255,520.562927 92.109932,518.385315 95.294754,516.957581 
	C97.238892,517.049988 97.422905,518.802368 98.504417,519.484436 
	C99.901604,519.238770 100.160782,518.000061 100.885361,517.224182 
	C99.860909,515.129395 97.249619,516.037170 96.275162,514.292297 
	C100.627098,511.860291 103.832733,505.854980 105.099815,500.605164 
	C107.299171,491.492706 106.566811,481.851471 110.515480,473.044586 
	C111.999496,469.734741 110.855225,465.834473 111.640594,462.180908 
	C112.731697,457.105042 112.894531,451.893585 116.018661,447.350922 
	C117.362709,445.396576 116.232086,442.860107 116.156166,440.561951 
	C115.908157,433.054230 116.597099,425.431427 119.752876,418.631195 
	C121.550919,414.756683 126.211342,412.316406 128.001297,408.226349 
	C131.342743,400.591064 134.402603,392.814301 133.043579,384.075043 
	C132.481796,380.462433 134.860855,379.588989 138.557602,380.522522 
	C139.841202,369.243286 143.533752,358.479095 142.694992,347.116852 
	C142.521027,344.760010 142.899078,343.055054 144.526489,341.267120 
	C147.674103,337.809052 148.424210,332.858734 149.767288,328.811371 
	C152.018387,322.027649 156.507401,315.944855 156.620575,308.324005 
	C156.697083,303.171906 158.206406,298.156769 162.458069,294.509521 
	C163.047806,294.003632 163.544220,293.178802 163.709610,292.420044 
	C166.100769,281.449738 174.359512,273.999512 180.117035,265.057800 
	C180.801971,263.994049 181.965408,263.093506 183.104660,262.490875 
	C189.959030,258.865082 194.085968,253.516159 196.262238,245.852524 
	C198.331970,238.564148 204.606232,233.543549 209.187698,227.700775 
	C216.890625,217.877151 223.757919,207.315979 231.853729,197.969757 
	C241.123657,187.268066 252.004349,177.910736 261.067719,166.875214 
	C262.439087,165.205429 264.938354,164.006500 267.120728,163.532196 
	C281.348419,160.440018 293.152191,151.263504 307.180023,147.763855 
	C311.311249,146.733215 314.254974,143.764938 316.929932,141.048935 
	C321.749756,136.155182 327.373932,135.165192 333.455414,136.194260 
	C345.401184,138.215668 356.633606,136.800430 367.267273,130.846588 
	C369.134491,129.801102 371.258179,128.694077 373.311951,128.592041 
	C381.835693,128.168594 390.117889,126.812332 398.264313,124.181763 
	C401.313690,123.197090 404.578949,124.407707 407.441284,125.852303 
	C417.120575,130.737366 427.215942,133.778351 438.186707,133.040771 
	C442.439941,132.754822 446.006439,134.194489 449.206207,136.876053 
	C451.247528,138.586807 453.656921,139.944626 455.405609,141.903198 
	C462.809357,150.195419 473.092957,151.033371 482.992828,152.989548 
	C497.078217,155.772751 510.121826,151.446060 522.786865,146.433395 
	C527.879761,144.417679 532.569763,140.882385 537.489868,138.107941 
	C542.231567,135.434113 547.201660,133.754532 552.546021,133.075638 
	C560.163452,132.107986 567.648499,130.530869 574.975464,128.244751 
	C579.771851,126.748230 584.649841,125.733589 589.670471,125.543442 
	C599.442200,125.173363 608.328674,120.689888 617.925842,119.531639 
	C619.081238,119.392197 620.421448,118.844345 621.370667,119.232468 
	C631.981445,123.571060 642.762634,118.921211 653.416870,119.972031 
	C662.685547,120.886192 671.892883,121.585342 681.268066,120.321907 
	C686.490784,119.618080 691.677551,122.241203 696.906006,123.236763 
	C711.623352,126.039124 726.302002,126.235222 740.981873,122.855255 
	C745.508789,121.812973 750.100220,121.423744 754.824097,121.659798 
	C765.330933,122.184822 774.935974,119.872429 784.076355,113.903076 
	C790.537292,109.683548 798.449585,110.565491 805.578613,113.921677 
	C807.834656,114.983818 809.954834,116.351921 812.403320,116.942047 
	C818.548401,118.423058 822.754944,121.854401 824.693481,128.094635 
	C825.912354,132.018387 829.250549,134.126923 832.837097,135.717804 
	C854.299377,145.237854 872.516052,159.390091 889.118469,175.688324 
	C893.709717,180.195450 896.555725,186.597000 901.412842,190.694641 
	C915.367981,202.467804 924.436890,217.286438 930.456909,234.150269 
	C933.698792,243.231812 939.591064,250.730423 944.150330,259.015900 
	C950.271973,270.140656 952.721680,282.464386 956.036987,294.470062 
	C960.030518,308.931671 963.678284,323.457458 971.024902,336.708710 
	C971.421265,337.423553 971.820496,338.269989 971.816956,339.053406 
	C971.763977,350.829620 973.342163,362.684479 969.337952,374.233643 
	C965.097107,386.465240 963.142212,399.089630 964.013611,412.074585 
	C964.080444,413.070343 963.964539,414.175201 964.355957,415.037628 
	C969.460876,426.284180 967.236084,438.731842 970.191895,450.322845 
	C970.478882,451.448273 970.798279,452.640564 970.715942,453.773712 
	C969.482178,470.747162 976.322754,486.469208 978.284607,502.942505 
	C978.811462,507.366852 981.584717,510.907928 983.086487,514.930603 
	C989.669922,532.565125 993.919312,550.559326 990.788513,569.610046 
	C989.871765,575.188660 989.705750,580.894897 988.704041,586.454041 
	C987.775696,591.606262 985.657593,595.982544 979.261169,596.282288 
	C975.887695,596.440491 973.963501,598.568176 973.237244,601.952026 
	C970.298279,615.645325 969.879944,629.318542 973.286987,642.992188 
	C973.688660,644.603943 974.067505,646.076050 976.251770,646.469910 
	C979.249634,647.010620 980.925049,645.493713 982.281677,643.157288 
	C989.301392,652.661621 990.241577,668.926025 984.528381,678.397949 
	C983.936279,679.379517 983.236145,680.519226 983.224854,681.592224 
	C983.140747,689.567932 979.775391,696.011536 974.321533,701.570801 
	C973.750305,702.152954 973.262390,702.903320 972.976013,703.665833 
	C967.873352,717.254150 957.198914,726.015381 946.272766,734.560425 
	C944.552979,735.905518 942.987244,737.385010 941.873657,739.288330 
	C938.939453,744.303711 935.023376,748.246338 929.680359,750.715515 
	C923.111328,753.751221 919.654358,760.300110 914.125732,764.594482 
	C904.422791,772.131165 898.921021,783.416870 890.557129,792.203308 
	C886.278259,796.698425 880.553650,799.321655 876.863647,804.829834 
	C870.413818,814.457642 864.200439,824.301514 857.410706,833.635742 
	C847.630859,847.080750 836.197815,859.251587 819.877075,865.365112 
	C816.190247,866.746094 812.401489,868.450134 809.389038,870.901794 
	C804.475464,874.900513 798.672668,876.568176 792.875244,877.278503 
	C788.853088,877.771240 785.324768,879.472656 781.379761,879.999390 
	C748.733154,884.358582 715.820862,886.194153 683.168335,890.331604 
	C668.170593,892.231995 653.110779,893.233093 638.096252,894.139771 
	C627.008179,894.809326 615.857178,896.415344 604.670532,895.467163 
	C600.468506,895.111023 596.463745,894.480957 593.450562,890.932800 
	C590.221558,887.130676 585.887573,885.856873 580.935669,886.015930 
	C571.122986,886.331238 561.309998,885.929138 551.532654,887.655457 
	C545.738892,888.678345 540.054810,885.825195 534.257080,885.642883 
	C525.290405,885.361023 517.778137,879.690735 509.015198,879.114197 
	C501.457245,878.617065 494.285095,876.818420 486.847229,874.182861 
M537.463013,719.955627 
	C539.129333,719.946716 540.795654,719.943848 542.461914,719.927856 
	C550.584839,719.850037 552.036743,718.120056 549.969788,710.375305 
	C547.738892,702.016174 545.239075,693.729309 542.907288,685.396729 
	C522.684631,613.131409 502.473083,540.862915 482.258911,468.595215 
	C469.353119,422.455841 456.429596,376.321350 443.551239,330.174316 
	C436.798553,305.977234 430.146057,281.752228 423.403534,257.552307 
	C421.603394,251.091354 419.729218,249.429367 413.825165,249.408157 
	C389.325500,249.320084 364.825348,249.374527 340.325806,249.270233 
	C335.333099,249.248993 332.716919,251.652924 331.412750,256.261688 
	C326.836334,272.434265 322.037018,288.544250 317.523682,304.734131 
	C287.409882,412.756470 257.348999,520.793640 227.268997,628.825378 
	C219.814407,655.598389 212.296646,682.353943 204.925949,709.150024 
	C202.529221,717.863281 204.205582,719.919312 213.298965,719.932312 
	C232.965424,719.960449 252.632050,719.923340 272.298492,719.874695 
	C280.831055,719.853516 281.543671,719.418823 283.772858,711.241882 
	C291.605377,682.511414 299.324493,653.750122 307.105408,625.005554 
	C309.375000,616.621155 310.599304,615.670715 319.216278,615.665955 
	C358.216187,615.644653 397.216064,615.640381 436.215973,615.642639 
	C444.036346,615.643127 445.218201,616.719238 447.318909,624.144897 
	C455.651337,653.598633 464.138916,683.008789 472.409088,712.479919 
	C473.916901,717.853027 476.900055,719.978882 482.476532,719.924072 
	C500.474213,719.747192 518.475342,719.920898 537.463013,719.955627 
M836.345093,345.127533 
	C836.223389,344.642853 836.078247,344.162720 835.983398,343.672852 
	C826.286133,293.585358 796.893311,262.020325 747.151062,250.172836 
	C719.544678,243.597610 691.816650,244.145233 664.036621,250.215683 
	C625.989685,258.529633 597.646912,279.337952 580.193481,314.249359 
	C567.996277,338.647003 563.990051,364.671112 566.057678,391.819153 
	C567.962524,416.830933 576.307251,439.123108 592.507812,458.393280 
	C605.793091,474.195740 623.258057,484.323151 641.096497,493.767609 
	C670.686035,509.433624 701.498474,522.748474 730.474426,539.590454 
	C756.586365,554.767883 769.011108,577.625000 766.149963,607.888123 
	C764.668396,623.559875 757.143921,636.454895 744.062378,645.437561 
	C721.352966,661.031189 683.655518,660.610168 660.087097,645.332397 
	C642.839722,634.152283 633.412842,618.419556 630.603821,598.287354 
	C629.518555,590.508972 627.857910,589.116028 620.202454,589.369507 
	C602.901001,589.942383 585.605347,590.704895 568.312134,591.496277 
	C565.335083,591.632568 562.366089,592.203064 559.421875,592.731628 
	C555.835938,593.375488 553.904480,595.313538 554.168335,599.285522 
	C554.487549,604.091614 554.340393,608.892151 555.172119,613.704285 
	C563.519592,662.001953 590.698914,696.132202 635.540833,714.276428 
	C674.003479,729.839417 714.150757,729.572083 754.010864,717.693298 
	C793.469788,705.934143 821.044739,681.096313 835.922485,642.579468 
	C845.299805,618.302734 847.325745,593.066711 844.339844,567.412415 
	C841.621582,544.057922 833.578552,522.717651 817.852417,504.899414 
	C804.439270,489.701843 787.782349,478.662109 769.801941,469.583710 
	C745.713806,457.421478 721.335022,445.807800 697.845459,432.507965 
	C683.673218,424.483612 669.381714,416.655212 657.906067,404.536072 
	C633.976868,379.264984 644.076843,341.406738 664.701355,327.865906 
	C679.370483,318.235107 695.473328,314.604767 712.797058,317.718231 
	C735.014404,321.711090 752.164917,332.460419 760.663452,354.512054 
	C763.135071,360.925140 764.719299,367.527985 766.140625,374.200134 
	C767.596558,381.034851 768.898132,382.089172 775.888428,381.907837 
	C783.247986,381.716888 790.356873,379.833496 797.545227,378.572113 
	C808.988770,376.564117 820.583801,375.381836 831.840820,372.304779 
	C836.028748,371.160034 837.828186,368.670898 837.880981,364.384766 
	C837.957092,358.198181 837.463623,352.077393 836.345093,345.127533 
z"/>
<path fill="#000000" opacity="1.000000" stroke="none" 
	d="
M359.930054,411.152252 
	C363.937347,395.967377 367.823059,381.173798 371.731720,366.386322 
	C372.326630,364.135590 372.947083,361.885010 373.706726,359.686554 
	C374.273102,358.047394 374.373840,355.664093 376.778992,355.755798 
	C378.817444,355.833527 379.018158,357.928040 379.474030,359.496338 
	C381.283508,365.721344 383.202698,371.918549 384.838104,378.189453 
	C398.468781,430.455322 412.049408,482.734253 425.634369,535.012024 
	C427.925629,543.829285 426.044525,546.336304 416.989197,546.343933 
	C390.006317,546.366760 363.023376,546.356079 336.040527,546.311035 
	C327.091644,546.296082 324.960785,543.598694 327.236359,534.977112 
	C337.799316,494.956940 348.427917,454.954132 359.027008,414.943481 
	C359.324646,413.820007 359.554474,412.678619 359.930054,411.152252 
z"/>
</svg>